# xmcd
#
# Track frame offsets:
#  150
#  18432
#  34463
#  53026
#  79326
#  97326
#  115326
#  132061
#  151468
#  177906
#  198297
#  228672
#
# Disc length: 3457 seconds
#
# Revision: 0
# Processed by: cddbd v1.5.2PL0 Copyright (c) Steve Scherf et al.
# Submitted via: Collectorz.com_Music_Collector 6.11
#
DISCID=a30d7f0c
DTITLE=Various Artist - Ultra Weekend 6 [CD2]
DYEAR=2010
DGENRE=Dance - House
TTITLE0=Inna - Hot (Play and Win Club Mix)
TTITLE1=Grum - Can't Shake This Feeling (Album Version)
TTITLE2=Kaskade feat. Haley - Dynasty (Extended Mix)
TTITLE3=Dennis Ferrer - Hey Hey (DF's Attention Vocal Mix)
TTITLE4=Benny Benassi - Satisfaction (Afrojack Remix)
TTITLE5=Honorebel feat. Pitbull and Jump Smokers - I Wanna
TTITLE6=Mike Candys and Jack Holiday - Insomnia (Chris Crime Infinity Remix)
TTITLE7=Kim Sozzi - Secret Love (Stellar Project Remix)
TTITLE8=Calvin Harris - Flashback (David Guetta's One Love Remix)
TTITLE9=Klaas meets Haddaway - What Is Love 2K9 (Klaas Club Mix)
TTITLE10=Jes - Lovesong (Extended Mix)
TTITLE11=Kaskade and Seamus Haji with Haley - So Far Away
EXTD=
EXTT0=
EXTT1=
EXTT2=
EXTT3=
EXTT4=
EXTT5=
EXTT6=
EXTT7=
EXTT8=
EXTT9=
EXTT10=
EXTT11=
PLAYORDER=
